<?xml version="1.0" encoding="UTF-8"?>
<svg id="_圖層_2" data-name="圖層 2" xmlns="http://www.w3.org/2000/svg" viewBox="0 0 476.52 124.72">
  <defs>
    <style>
      .cls-1 {
        fill: #0b2d2a;
      }
    </style>
  </defs>
  <g id="_圖層_1-2" data-name="圖層 1">
    <path class="cls-1" d="M0,1.86h6.83v119.71H0V1.86ZM64.45,1.86v119.71h6.83V1.86h-6.83ZM14.04,110.73h2.03V25.93h-2.03v84.79ZM26.36,25.93h-2.03v84.79h2.03V25.93ZM36.66,25.93h-2.03v84.79h2.03V25.93ZM44.92,110.73h2.03V25.93h-2.03v84.79ZM55.22,110.73h2.03V25.93h-2.03v84.79ZM14.04,121.57h2.03v-9.1h-2.03v9.1ZM24.56,121.57h2.03v-9.1h-2.03v9.1ZM34.9,121.57h2.03v-9.1h-2.03v9.1ZM44.51,121.57h2.03v-9.1h-2.03v9.1ZM55.22,121.57h2.03v-9.1h-2.03v9.1ZM16.4,33.76h7.05v-.4h-7.05v.4ZM16.4,42.29h7.05v-.4h-7.05v.4ZM16.4,50.82h7.05v-.4h-7.05v.4ZM16.4,59.35h7.05v-.4h-7.05v.4ZM16.4,67.88h7.05v-.4h-7.05v.4ZM16.4,76.41h7.05v-.4h-7.05v.4ZM16.4,84.94h7.05v-.4h-7.05v.4ZM16.4,93.47h7.05v-.4h-7.05v.4ZM16.4,102h7.05v-.4h-7.05v.4ZM16.4,110.53h7.05v-.4h-7.05v.4ZM26.75,33.76h7.05v-.4h-7.05v.4ZM26.75,42.29h7.05v-.4h-7.05v.4ZM26.75,50.82h7.05v-.4h-7.05v.4ZM26.75,59.35h7.05v-.4h-7.05v.4ZM26.75,67.88h7.05v-.4h-7.05v.4ZM26.75,76.41h7.05v-.4h-7.05v.4ZM26.75,84.94h7.05v-.4h-7.05v.4ZM26.75,93.47h7.05v-.4h-7.05v.4ZM26.75,102h7.05v-.4h-7.05v.4ZM26.75,110.53h7.05v-.4h-7.05v.4ZM37.1,33.76h7.05v-.4h-7.05v.4ZM37.1,42.29h7.05v-.4h-7.05v.4ZM37.1,50.82h7.05v-.4h-7.05v.4ZM37.1,59.35h7.05v-.4h-7.05v.4ZM37.1,67.88h7.05v-.4h-7.05v.4ZM37.1,76.41h7.05v-.4h-7.05v.4ZM37.1,84.94h7.05v-.4h-7.05v.4ZM37.1,93.47h7.05v-.4h-7.05v.4ZM37.1,102h7.05v-.4h-7.05v.4ZM37.1,110.53h7.05v-.4h-7.05v.4ZM47.36,33.76h7.05v-.4h-7.05v.4ZM47.36,42.29h7.05v-.4h-7.05v.4ZM47.36,50.82h7.05v-.4h-7.05v.4ZM47.36,59.35h7.05v-.4h-7.05v.4ZM47.36,67.88h7.05v-.4h-7.05v.4ZM47.36,76.41h7.05v-.4h-7.05v.4ZM47.36,84.94h7.05v-.4h-7.05v.4ZM47.36,93.47h7.05v-.4h-7.05v.4ZM47.36,102h7.05v-.4h-7.05v.4ZM47.36,110.53h7.05v-.4h-7.05v.4ZM7.94,33.96h5.17v-.27h-5.17v.27ZM7.94,42.49h5.17v-.27h-5.17v.27ZM7.94,51.02h5.17v-.27h-5.17v.27ZM7.94,59.55h5.17v-.27h-5.17v.27ZM7.94,68.08h5.17v-.27h-5.17v.27ZM7.94,76.61h5.17v-.27h-5.17v.27ZM7.94,85.14h5.17v-.27h-5.17v.27ZM7.94,93.67h5.17v-.27h-5.17v.27ZM7.94,102.2h5.17v-.27h-5.17v.27ZM7.94,110.73h5.17v-.27h-5.17v.27ZM58.3,33.96h5.17v-.27h-5.17v.27ZM58.3,42.49h5.17v-.27h-5.17v.27ZM58.3,51.02h5.17v-.27h-5.17v.27ZM58.3,59.55h5.17v-.27h-5.17v.27ZM58.3,68.08h5.17v-.27h-5.17v.27ZM58.3,76.61h5.17v-.27h-5.17v.27ZM58.3,85.14h5.17v-.27h-5.17v.27ZM58.3,93.67h5.17v-.27h-5.17v.27ZM58.3,102.2h5.17v-.27h-5.17v.27ZM58.3,110.73h5.17v-.27h-5.17v.27ZM7.94,25.86h5.17v-.27h-5.17v.27ZM58.3,25.86h5.17v-.27h-5.17v.27ZM15.39,24.02h.2v-9.85c.43-.06.87-.11,1.32-.17V3.25h-2.78v11.12c.41-.06.83-.12,1.26-.18v9.82ZM19.36,24.02h.2v-10.3c.34-.03.68-.07,1.03-.1V3.25h-2.78v10.65c.51-.06,1.02-.11,1.55-.16v10.28ZM22.7,24.02h.2v-10.58c.45-.03.9-.06,1.36-.09V3.25h-2.78v10.29c.4-.03.81-.06,1.22-.09v10.57ZM26.45,24.02h.2v-10.81c.43-.02.86-.04,1.29-.06V3.25h-2.78v10.04c.43-.02.86-.05,1.29-.07v10.8ZM30.13,24.02h.2v-10.95c.42-.01.85-.02,1.28-.03V3.25h-2.78v9.87c.43-.02.86-.03,1.3-.04v10.95ZM8.63,5.14h-.22v14.06h.22V5.14ZM9.75,5.14h-.22v14.06h.22V5.14ZM10.87,5.14h-.22v14.06h.22V5.14ZM11.99,5.14h-.22v14.06h.22V5.14ZM13.11,5.14h-.22v14.06h.22V5.14ZM34.09,24.02h.2v-11.02c.33,0,.66,0,.99,0V3.25h-2.78v9.77c.53,0,1.06-.01,1.59-.02v11.02ZM37.43,24.02h.2v-11.02c.44,0,.88,0,1.32.02V3.25h-2.78v9.74c.42,0,.84,0,1.26,0v11.02ZM41.18,24.02h.2v-10.95c.42.01.83.03,1.25.04V3.25h-2.78v9.78c.45,0,.89.02,1.34.03v10.95ZM45.05,24.02h.2v-10.79c.35.02.7.04,1.05.06V3.25h-2.78v9.9c.52.02,1.03.04,1.53.07v10.8ZM49.01,24.02h.2v-10.54c.25.02.51.04.76.06V3.25h-2.78v10.08c.62.04,1.23.08,1.83.13v10.56ZM52.35,24.02h.2v-10.25c.37.04.73.07,1.09.11V3.25h-2.78v10.36c.51.04,1,.09,1.49.14v10.27ZM56.1,24.02h.2v-9.81c.34.05.68.09,1.01.14V3.25h-2.78v10.73c.54.06,1.06.13,1.57.2v9.84ZM58.98,5.14h-.22v14.06h.22V5.14ZM60.1,5.14h-.22v14.06h.22V5.14ZM61.22,5.14h-.22v14.06h.22V5.14ZM62.34,5.14h-.22v14.06h.22V5.14ZM63.46,5.14h-.22v14.06h.22V5.14ZM13.62,24.63h43.92v-.42H13.62v.42Z"/>
    <g>
      <g>
        <path class="cls-1" d="M117.59,59.03c6.82-5.96,9.42-8.41,14.6-14.21,1.27-.6,2.46-1.16,2.46-2.06,0-.5-.48-.99-1.56-1.61l-5.44-3.18-.11.43c-1.34,5.41-5.94,11.53-13.66,18.18l-.35.3,3.87,2.3.18-.16Z"/>
        <path class="cls-1" d="M140.7,52.8l-5.38-2.9-.14.34c-1.27,3.12-7.22,12.73-19.3,19.67l-.49.28,3.67,2.26.17-.09c6.51-3.44,16.12-11.27,20.64-16.8,1.44-.38,2.17-.59,2.17-1.46,0-.56-.68-.97-1.34-1.3Z"/>
        <path class="cls-1" d="M116.36,40.13c.59,0,1.12-.71,1.71-1.57.04-.06.08-.12.12-.17,1.45-.32,5.16-1,9.07-1.72,4.9-.9,10.42-1.91,12.72-2.44v2.95h6.58V8.01h3.11v-3.47h-34.81v3.47h5.68v24.88c-1.31.13-5.3.49-6.79.36l-.5-.04,1.55,4.98c.09.33.61,1.95,1.56,1.95ZM126.8,13.8v-5.79h13.18v5.79h-13.18ZM126.8,22.82v-5.56h13.18v5.56h-13.18ZM139.98,26.21v4.36c-2.17.35-3.6.54-13.18,1.7v-6.06h13.18Z"/>
        <path class="cls-1" d="M169.03,25.27c6.52-5.85,11.55-13.23,13.83-20.29l.14-.43h-30.96v3.47h21.95c-1.73,4.78-4.42,9.21-8.21,13.53-3.48-4.81-4.85-9.98-5.45-12.22l-.2-.75-5.82,3.39.09.26c1.06,3.19,3.24,8.01,7.62,13-6.31,5.32-11.47,7.14-14.26,8.12l-.49.17,2.77,2.86.2-.07c6.04-2.17,10.26-4.4,14.96-7.9,2.9,2.54,8.98,6.95,18.29,9.38l.23.06,2.18-3.32-.46-.11c-6.33-1.47-12.85-5.72-16.39-9.15Z"/>
        <path class="cls-1" d="M161.82,57.79c5.23-2.39,10.33-5.14,15.16-8.18,1.2-.16,2.94-.42,2.94-1.64,0-.49-.27-.8-1.31-1.52l-4.99-3.35-.19.22c-5.22,5.87-13.4,10.32-14.84,11.09-1.86-2.03-3.91-4.83-6.12-8.32v-.58c5.81-1.5,10.84-3.37,14.07-4.68l.44-.07c1.23-.19,2.29-.36,2.29-1.26,0-.47-.45-.91-1.2-1.57l-4.37-3.88-.22.25c-3.95,4.51-14.84,8.51-29.12,10.7l-.51.08,2.18,3.41.21-.03c2.42-.29,5.71-.73,9.89-1.56v26.14h6.34v-17.96c6.42,7.24,13.12,12.28,27.26,16.39l.21.06,2.83-3.3-.85-.2c-3.71-.86-12.31-2.86-20.09-10.23Z"/>
        <path class="cls-1" d="M239.1,25.86h-14.3c2.07-5.14,4.08-10.88,5.01-18h11.78v-3.47h-29.6v3.47h10.85c-1.03,10.37-3.6,23.83-14.05,36.71l-.23.28,2.87,2.01.2-.23c3.35-3.91,4.58-5.58,6.18-7.92v30.51h6.5v-6.92h14.78V25.86ZM232.52,29.32v29.43h-8.2v-29.43h8.2Z"/>
        <path class="cls-1" d="M256.43,15.67h-10.84v39.71h33.02V15.67h-17.6c1.18-1.77,3.24-5.07,4.56-7.81h16.07v-3.47h-38.69v3.47h15.73c-.37,2.31-1.2,5.18-2.25,7.81ZM252.32,26.79v-7.73h19.55v7.73h-19.55ZM252.32,39.15v-8.9h19.55v8.9h-19.55ZM252.32,51.99v-9.37h19.55v9.37h-19.55Z"/>
        <path class="cls-1" d="M270.16,56.36l-.19-.36-5.09,4.12.22.26c3.87,4.65,9.37,9.61,13.38,12.05l.2.12,3.16-2.6-.34-.25c-3.36-2.47-8.34-7.71-11.34-13.34Z"/>
        <path class="cls-1" d="M257.97,59.67l-5.58-4.15-.16.4c-2.86,7.1-8.49,11.1-13.62,14.07l-.46.27,3.63,2.42.16-.07c3.6-1.52,10.56-5.67,15.05-10.88l.13-.02c1.38-.21,1.75-.26,1.75-.91,0-.46-.3-.68-.88-1.12Z"/>
        <rect class="cls-1" x="334.94" y="11.94" width="40.33" height="3.47"/>
        <path class="cls-1" d="M333.19,3.33c0-.5-.31-.61-.75-.77l-6.75-2.56-.08.38c-1.46,6.63-9.95,25.12-20.29,35.38l-.31.31,3.7,2.13.18-.17c1.71-1.58,5.19-4.79,9.4-10.3v45.61h7.04V16.95c2.59-4.48,4.6-8.12,6.31-11.46.29-.24,1.55-1.33,1.55-2.16Z"/>
        <rect class="cls-1" x="329.88" y="62.95" width="50.44" height="3.47"/>
        <path class="cls-1" d="M454.3,40.62l-.26-.19-2.87,3.59.21.21c5.28,5.37,8.74,9.88,11.22,14.62l.22.42,5.5-5.93-.19-.22c-3.41-4.05-10.8-10.23-13.82-12.5Z"/>
        <polygon class="cls-1" points="443.55 66.22 443.55 37.72 469.44 37.72 469.44 34.26 443.55 34.26 443.55 7.86 473.25 7.86 473.25 4.47 408.51 4.47 408.51 7.86 436.58 7.86 436.58 34.26 412.32 34.26 412.32 37.72 436.58 37.72 436.58 66.22 405.24 66.22 405.24 69.68 476.52 69.68 476.52 66.22 443.55 66.22"/>
      </g>
      <g>
        <path class="cls-1" d="M221.97,107.79c0-3.55,0-4.21-.05-4.96-.05-.8-.23-1.17-1.01-1.33-.19-.05-.58-.07-.91-.07-.26,0-.4-.05-.4-.21s.16-.21.51-.21c1.24,0,2.71.07,3.32.07.56,0,2.03-.07,2.95-.07.33,0,.49.05.49.21s-.14.21-.42.21c-.26,0-.4.02-.68.07-.63.12-.82.51-.87,1.33-.05.75-.05,1.4-.05,4.96v4.33c0,1.01.07,2.13.07,3.3,0,1.33-.09,2.83-.56,4.14-.49,1.43-1.73,3.04-3.98,4.42-.3.19-.68.37-1.17.61-.16.09-.35.14-.47.14-.09,0-.19-.07-.19-.19s.12-.21.51-.42c.3-.16.65-.42,1.12-.89,1.78-1.8,1.75-4.14,1.75-8.72v-6.71Z"/>
        <path class="cls-1" d="M237.31,112.59c-.12,0-.16.05-.21.19l-1.26,3.34c-.23.58-.35,1.15-.35,1.43,0,.42.21.72.94.72h.35c.28,0,.35.05.35.19,0,.19-.14.23-.4.23-.75,0-1.75-.07-2.48-.07-.26,0-1.54.07-2.76.07-.3,0-.44-.05-.44-.23,0-.14.09-.19.28-.19.21,0,.54-.02.73-.05,1.08-.14,1.52-.94,1.99-2.11l5.87-14.69c.28-.68.42-.94.65-.94.21,0,.35.21.58.75.56,1.29,4.3,10.83,5.8,14.38.89,2.11,1.57,2.43,2.06,2.55.35.07.7.09.98.09.19,0,.3.02.3.19,0,.19-.21.23-1.08.23s-2.55,0-4.42-.05c-.42-.02-.7-.02-.7-.19,0-.14.09-.19.33-.21.16-.05.33-.26.21-.54l-1.87-4.96c-.05-.12-.12-.16-.23-.16h-5.22ZM242.08,111.42c.12,0,.14-.07.12-.14l-2.1-5.78c-.02-.09-.05-.21-.12-.21s-.12.12-.14.21l-2.15,5.75c-.02.09,0,.16.09.16h4.3Z"/>
        <path class="cls-1" d="M257.42,107.79c0-3.55,0-4.21-.05-4.96-.05-.8-.23-1.17-1.01-1.33-.19-.05-.58-.07-.91-.07-.26,0-.4-.05-.4-.21s.16-.21.51-.21c1.24,0,2.71.07,3.37.07.73,0,2.2-.07,3.6-.07,2.92,0,6.83,0,9.38,2.67,1.17,1.22,2.27,3.16,2.27,5.94,0,2.95-1.24,5.19-2.55,6.53-1.08,1.1-3.51,2.76-7.84,2.76-.84,0-1.8-.07-2.69-.14-.89-.07-1.71-.14-2.29-.14-.26,0-.77,0-1.33.02-.54,0-1.15.05-1.61.05-.3,0-.47-.07-.47-.23,0-.12.09-.19.37-.19.35,0,.63-.05.84-.09.47-.09.58-.61.68-1.29.12-.98.12-2.83.12-4.98v-4.12ZM260.35,110.36c0,2.48.02,4.28.05,4.72.02.58.07,1.52.26,1.78.3.44,1.22.94,3.06.94,2.39,0,3.98-.47,5.38-1.68,1.5-1.29,1.96-3.41,1.96-5.82,0-2.97-1.24-4.89-2.25-5.85-2.15-2.06-4.82-2.34-6.64-2.34-.47,0-1.33.07-1.52.16-.21.09-.28.21-.28.47-.02.79-.02,2.83-.02,4.68v2.95Z"/>
        <path class="cls-1" d="M283.76,107.79c0-3.55,0-4.21-.05-4.96-.05-.8-.23-1.17-1.01-1.33-.19-.05-.58-.07-.91-.07-.26,0-.4-.05-.4-.21s.16-.21.51-.21c.63,0,1.31.02,1.89.02.61.02,1.15.05,1.47.05.75,0,5.4,0,5.85-.02.44-.05.82-.09,1.01-.14.12-.02.26-.09.37-.09s.14.09.14.21c0,.16-.12.44-.19,1.52-.02.23-.07,1.26-.12,1.54-.02.12-.07.26-.23.26s-.21-.12-.21-.33c0-.16-.02-.56-.14-.84-.16-.42-.4-.7-1.57-.84-.4-.05-2.85-.09-3.32-.09-.12,0-.16.07-.16.23v5.92c0,.16.02.26.16.26.51,0,3.2,0,3.74-.05.56-.05.91-.12,1.12-.35.16-.19.26-.3.37-.3.09,0,.16.05.16.19s-.09.51-.19,1.71c-.02.47-.09,1.4-.09,1.57,0,.19,0,.44-.21.44-.16,0-.21-.09-.21-.21-.02-.23-.02-.54-.09-.84-.12-.47-.44-.82-1.31-.91-.44-.05-2.76-.07-3.32-.07-.12,0-.14.09-.14.23v1.85c0,.79-.02,2.95,0,3.62.05,1.61.42,1.96,2.81,1.96.61,0,1.59,0,2.2-.28.61-.28.89-.77,1.05-1.73.05-.26.09-.35.26-.35.19,0,.19.19.19.42,0,.54-.19,2.13-.3,2.6-.16.61-.37.61-1.26.61-1.75,0-3.04-.05-4.05-.07-1.01-.05-1.73-.07-2.43-.07-.26,0-.77,0-1.33.02-.54,0-1.15.05-1.61.05-.3,0-.47-.07-.47-.23,0-.12.09-.19.37-.19.35,0,.63-.05.84-.09.47-.09.58-.61.68-1.29.12-.98.12-2.83.12-4.98v-4.12Z"/>
        <path class="cls-1" d="M312.36,109.85c0-4,2.64-9.17,9.66-9.17,5.82,0,9.45,3.39,9.45,8.75s-3.74,9.59-9.68,9.59c-6.71,0-9.42-5.03-9.42-9.17ZM328.19,110.29c0-5.24-3.02-8.49-6.85-8.49-2.69,0-5.75,1.5-5.75,7.32,0,4.86,2.69,8.72,7.18,8.72,1.64,0,5.43-.8,5.43-7.55Z"/>
        <path class="cls-1" d="M342.34,115.51c.05,1.82.35,2.43.82,2.6.4.14.84.16,1.22.16.26,0,.4.05.4.19,0,.19-.21.23-.54.23-1.52,0-2.46-.07-2.9-.07-.21,0-1.31.07-2.53.07-.3,0-.51-.02-.51-.23,0-.14.14-.19.37-.19.3,0,.73-.02,1.05-.12.61-.19.7-.87.72-2.9l.21-13.84c0-.47.07-.8.3-.8.26,0,.47.3.87.73.28.3,3.84,4.12,7.25,7.51,1.59,1.59,4.75,4.96,5.14,5.33h.12l-.23-10.5c-.02-1.43-.23-1.87-.79-2.1-.35-.14-.91-.14-1.24-.14-.28,0-.37-.07-.37-.21,0-.19.26-.21.61-.21,1.22,0,2.34.07,2.83.07.26,0,1.15-.07,2.29-.07.3,0,.54.02.54.21,0,.14-.14.21-.42.21-.23,0-.42,0-.7.07-.65.19-.84.68-.87,1.99l-.26,14.76c0,.51-.09.73-.3.73-.26,0-.54-.26-.79-.51-1.47-1.4-4.47-4.47-6.9-6.88-2.55-2.53-5.14-5.45-5.57-5.89h-.07l.26,9.82Z"/>
        <path class="cls-1" d="M367.85,107.79c0-3.55,0-4.21-.05-4.96-.05-.8-.23-1.17-1.01-1.33-.19-.05-.58-.07-.91-.07-.26,0-.4-.05-.4-.21s.16-.21.51-.21c.63,0,1.31.02,1.89.02.61.02,1.15.05,1.47.05.75,0,5.4,0,5.85-.02.44-.05.82-.09,1.01-.14.12-.02.26-.09.37-.09s.14.09.14.21c0,.16-.12.44-.19,1.52-.02.23-.07,1.26-.12,1.54-.02.12-.07.26-.23.26s-.21-.12-.21-.33c0-.16-.02-.56-.14-.84-.16-.42-.4-.7-1.57-.84-.4-.05-2.85-.09-3.32-.09-.12,0-.16.07-.16.23v5.92c0,.16.02.26.16.26.51,0,3.2,0,3.74-.05.56-.05.91-.12,1.12-.35.16-.19.26-.3.37-.3.09,0,.16.05.16.19s-.09.51-.19,1.71c-.02.47-.09,1.4-.09,1.57,0,.19,0,.44-.21.44-.16,0-.21-.09-.21-.21-.02-.23-.02-.54-.09-.84-.12-.47-.44-.82-1.31-.91-.44-.05-2.76-.07-3.32-.07-.12,0-.14.09-.14.23v1.85c0,.79-.02,2.95,0,3.62.05,1.61.42,1.96,2.81,1.96.61,0,1.59,0,2.2-.28.61-.28.89-.77,1.05-1.73.05-.26.09-.35.26-.35.19,0,.19.19.19.42,0,.54-.19,2.13-.3,2.6-.16.61-.37.61-1.26.61-1.75,0-3.04-.05-4.05-.07-1.01-.05-1.73-.07-2.43-.07-.26,0-.77,0-1.33.02-.54,0-1.15.05-1.61.05-.3,0-.47-.07-.47-.23,0-.12.09-.19.37-.19.35,0,.63-.05.84-.09.47-.09.58-.61.68-1.29.12-.98.12-2.83.12-4.98v-4.12Z"/>
      </g>
    </g>
  </g>
</svg>