<?xml version="1.0" encoding="UTF-8"?>
<svg id="_圖層_2" data-name="圖層 2" xmlns="http://www.w3.org/2000/svg" viewBox="0 0 545.83 370.49">
  <defs>
    <style>
      .cls-1 {
        fill: #f3cf9a;
      }
    </style>
  </defs>
  <g id="_圖層_1-2" data-name="圖層 1">
    <g>
      <path class="cls-1" d="M6.52,271.77c10.25-8.96,14.16-12.64,21.94-21.35,1.92-.89,3.7-1.75,3.7-3.1,0-.74-.73-1.49-2.35-2.42l-8.17-4.78-.16.65c-2.01,8.13-8.92,17.32-20.52,27.32l-.53.45,5.82,3.46.27-.24Z"/>
      <path class="cls-1" d="M41.25,262.43l-8.09-4.35-.21.52c-1.91,4.69-10.85,19.13-29,29.55l-.73.42,5.52,3.39.25-.13c9.78-5.17,24.22-16.93,31.02-25.24,2.17-.57,3.25-.89,3.25-2.19,0-.84-1.03-1.46-2.02-1.96Z"/>
      <path class="cls-1" d="M4.67,243.38c.89,0,1.69-1.07,2.57-2.37.06-.09.12-.18.18-.26,2.18-.48,7.75-1.5,13.63-2.58,7.36-1.35,15.65-2.88,19.11-3.66v4.43h9.88v-43.82h4.67v-5.21H2.42v5.21h8.53v37.38c-1.98.2-7.96.74-10.21.54l-.74-.07,2.32,7.48c.14.49.91,2.93,2.35,2.93ZM20.36,203.82v-8.7h19.8v8.7h-19.8ZM20.36,217.38v-8.35h19.8v8.35h-19.8ZM40.16,222.47v6.55c-3.26.52-5.41.8-19.8,2.55v-9.1h19.8Z"/>
      <path class="cls-1" d="M83.81,221.05c9.8-8.79,17.36-19.87,20.78-30.48l.21-.65h-46.52v5.21h32.98c-2.6,7.18-6.64,13.84-12.34,20.32-5.23-7.23-7.29-15-8.19-18.36l-.3-1.12-8.75,5.09.13.39c1.6,4.79,4.87,12.04,11.45,19.54-9.47,8-17.23,10.73-21.42,12.2l-.74.26,4.16,4.3.3-.11c9.08-3.27,15.41-6.61,22.47-11.86,4.36,3.81,13.49,10.44,27.48,14.1l.35.09,3.28-4.99-.7-.16c-9.51-2.21-19.31-8.6-24.62-13.75Z"/>
      <path class="cls-1" d="M72.97,269.91c7.86-3.59,15.52-7.72,22.78-12.29,1.8-.24,4.42-.63,4.42-2.47,0-.73-.4-1.2-1.97-2.29l-7.49-5.03-.29.33c-7.84,8.82-20.13,15.51-22.3,16.66-2.79-3.06-5.88-7.26-9.19-12.5v-.87c8.73-2.26,16.29-5.06,21.14-7.03l.67-.11c1.84-.29,3.44-.54,3.44-1.9,0-.71-.68-1.36-1.8-2.36l-6.57-5.83-.33.38c-5.93,6.78-22.29,12.79-43.75,16.08l-.76.12,3.27,5.12.31-.04c3.63-.44,8.58-1.1,14.86-2.34v39.27h9.53v-26.98c9.64,10.88,19.71,18.46,40.96,24.63l.31.09,4.25-4.96-1.28-.3c-5.57-1.29-18.5-4.3-30.19-15.38Z"/>
      <path class="cls-1" d="M189.09,221.93h-21.49c3.11-7.72,6.12-16.34,7.53-27.04h17.7v-5.21h-44.47v5.21h16.31c-1.55,15.58-5.41,35.81-21.1,55.16l-.34.42,4.32,3.02.29-.34c5.03-5.87,6.89-8.38,9.29-11.9v45.85h9.76v-10.4h22.2v-54.75ZM179.21,227.14v44.22h-12.32v-44.22h12.32Z"/>
      <path class="cls-1" d="M215.13,206.63h-16.29v59.66h49.61v-59.66h-26.44c1.77-2.67,4.87-7.62,6.86-11.74h24.14v-5.21h-58.14v5.21h23.64c-.56,3.47-1.8,7.79-3.38,11.74ZM208.96,223.34v-11.62h29.38v11.62h-29.38ZM208.96,241.92v-13.37h29.38v13.37h-29.38ZM208.96,261.2v-14.07h29.38v14.07h-29.38Z"/>
      <path class="cls-1" d="M235.78,267.77l-.28-.54-7.64,6.19.32.39c5.81,6.99,14.08,14.44,20.11,18.1l.3.18,4.74-3.91-.52-.38c-5.05-3.72-12.53-11.58-17.03-20.05Z"/>
      <path class="cls-1" d="M217.44,272.75l-8.39-6.23-.24.6c-4.29,10.67-12.76,16.67-20.47,21.14l-.7.4,5.45,3.63.25-.1c5.41-2.29,15.87-8.51,22.62-16.35l.19-.03c2.07-.31,2.62-.39,2.62-1.37,0-.69-.44-1.02-1.33-1.69Z"/>
      <rect class="cls-1" x="333.1" y="201.02" width="60.59" height="5.21"/>
      <path class="cls-1" d="M330.48,188.08c0-.75-.47-.92-1.12-1.15l-10.14-3.85-.12.56c-2.2,9.96-14.95,37.74-30.48,53.15l-.46.46,5.56,3.2.27-.25c2.57-2.37,7.8-7.2,14.12-15.47v68.54h10.58v-84.73c3.89-6.73,6.9-12.21,9.48-17.22.43-.36,2.32-2,2.32-3.24Z"/>
      <rect class="cls-1" x="325.51" y="277.67" width="75.79" height="5.21"/>
      <path class="cls-1" d="M512.45,244.12l-.39-.29-4.32,5.4.31.32c7.94,8.07,13.13,14.84,16.86,21.97l.33.63,8.26-8.91-.29-.34c-5.12-6.08-16.23-15.37-20.76-18.77Z"/>
      <polygon class="cls-1" points="496.29 282.58 496.29 239.76 535.2 239.76 535.2 234.56 496.29 234.56 496.29 194.89 540.93 194.89 540.93 189.8 443.64 189.8 443.64 194.89 485.82 194.89 485.82 234.56 449.37 234.56 449.37 239.76 485.82 239.76 485.82 282.58 438.73 282.58 438.73 287.79 545.83 287.79 545.83 282.58 496.29 282.58"/>
    </g>
    <g>
      <path class="cls-1" d="M163.36,345.05c0-5.34,0-6.33-.07-7.45-.07-1.2-.35-1.76-1.51-2-.28-.07-.88-.11-1.37-.11-.39,0-.6-.07-.6-.32s.25-.32.77-.32c1.86,0,4.08.11,4.99.11.84,0,3.06-.11,4.43-.11.49,0,.74.07.74.32s-.21.32-.63.32c-.39,0-.6.04-1.02.11-.95.18-1.23.77-1.3,2-.07,1.12-.07,2.11-.07,7.45v6.5c0,1.51.11,3.2.11,4.95,0,2-.14,4.25-.84,6.22-.74,2.14-2.6,4.57-5.97,6.64-.46.28-1.02.56-1.76.91-.25.14-.53.21-.7.21-.14,0-.28-.11-.28-.28s.18-.32.77-.63c.46-.25.98-.63,1.69-1.34,2.67-2.71,2.64-6.22,2.64-13.11v-10.09Z"/>
      <path class="cls-1" d="M186.41,352.25c-.18,0-.25.07-.32.28l-1.9,5.03c-.35.88-.53,1.72-.53,2.14,0,.63.32,1.09,1.41,1.09h.53c.42,0,.53.07.53.28,0,.28-.21.35-.6.35-1.12,0-2.64-.11-3.73-.11-.39,0-2.32.11-4.15.11-.46,0-.67-.07-.67-.35,0-.21.14-.28.42-.28.32,0,.81-.04,1.09-.07,1.62-.21,2.28-1.41,2.99-3.16l8.82-22.07c.42-1.02.63-1.41.98-1.41.32,0,.53.32.88,1.12.84,1.93,6.47,16.27,8.71,21.61,1.34,3.16,2.35,3.66,3.09,3.83.53.1,1.05.14,1.48.14.28,0,.46.04.46.28,0,.28-.32.35-1.62.35s-3.83,0-6.64-.07c-.63-.04-1.05-.04-1.05-.28,0-.21.14-.28.49-.32.25-.07.49-.39.32-.81l-2.81-7.45c-.07-.18-.18-.25-.35-.25h-7.84ZM193.58,350.49c.18,0,.21-.11.18-.21l-3.16-8.68c-.04-.14-.07-.32-.18-.32s-.18.18-.21.32l-3.23,8.64c-.04.14,0,.25.14.25h6.47Z"/>
      <path class="cls-1" d="M216.63,345.05c0-5.34,0-6.33-.07-7.45-.07-1.2-.35-1.76-1.51-2-.28-.07-.88-.11-1.37-.11-.39,0-.6-.07-.6-.32s.25-.32.77-.32c1.86,0,4.08.11,5.06.11,1.09,0,3.3-.11,5.41-.11,4.39,0,10.26,0,14.09,4.01,1.76,1.83,3.41,4.74,3.41,8.93,0,4.43-1.86,7.8-3.83,9.8-1.62,1.65-5.27,4.15-11.77,4.15-1.27,0-2.71-.11-4.04-.21-1.34-.11-2.57-.21-3.44-.21-.39,0-1.16,0-2,.04-.81,0-1.72.07-2.42.07-.46,0-.7-.11-.7-.35,0-.18.14-.28.56-.28.53,0,.95-.07,1.27-.14.7-.14.88-.91,1.02-1.93.18-1.48.18-4.25.18-7.48v-6.19ZM221.02,348.91c0,3.72.04,6.43.07,7.1.04.88.11,2.28.39,2.67.46.67,1.83,1.41,4.6,1.41,3.58,0,5.97-.7,8.08-2.53,2.25-1.93,2.95-5.13,2.95-8.75,0-4.46-1.86-7.34-3.37-8.79-3.23-3.09-7.24-3.51-9.98-3.51-.7,0-2,.11-2.28.25-.32.14-.42.32-.42.7-.04,1.19-.04,4.25-.04,7.03v4.43Z"/>
      <path class="cls-1" d="M256.2,345.05c0-5.34,0-6.33-.07-7.45-.07-1.2-.35-1.76-1.51-2-.28-.07-.88-.11-1.37-.11-.39,0-.6-.07-.6-.32s.25-.32.77-.32c.95,0,1.97.04,2.85.04.91.04,1.72.07,2.21.07,1.12,0,8.12,0,8.79-.04.67-.07,1.23-.14,1.51-.21.18-.04.39-.14.56-.14s.21.14.21.32c0,.25-.18.67-.28,2.28-.03.35-.1,1.9-.18,2.32-.04.18-.11.39-.35.39s-.32-.18-.32-.49c0-.25-.04-.84-.21-1.26-.25-.63-.6-1.05-2.35-1.27-.6-.07-4.29-.14-4.99-.14-.18,0-.25.11-.25.35v8.89c0,.25.04.39.25.39.77,0,4.81,0,5.62-.07.84-.07,1.37-.18,1.69-.53.25-.28.39-.46.56-.46.14,0,.25.07.25.28s-.14.77-.28,2.57c-.04.7-.14,2.11-.14,2.35,0,.28,0,.67-.32.67-.25,0-.32-.14-.32-.32-.04-.35-.04-.81-.14-1.27-.18-.7-.67-1.23-1.97-1.37-.67-.07-4.15-.11-4.99-.11-.18,0-.21.14-.21.35v2.78c0,1.19-.04,4.43,0,5.45.07,2.42.63,2.95,4.22,2.95.91,0,2.39,0,3.3-.42.91-.42,1.34-1.16,1.58-2.6.07-.39.14-.53.39-.53.28,0,.28.28.28.63,0,.81-.28,3.2-.46,3.9-.25.91-.56.91-1.9.91-2.64,0-4.57-.07-6.08-.11-1.51-.07-2.6-.11-3.65-.11-.39,0-1.16,0-2,.04-.81,0-1.72.07-2.42.07-.46,0-.7-.11-.7-.35,0-.18.14-.28.56-.28.53,0,.95-.07,1.27-.14.7-.14.88-.91,1.02-1.93.18-1.48.18-4.25.18-7.48v-6.19Z"/>
      <path class="cls-1" d="M299.17,348.14c0-6.01,3.97-13.78,14.51-13.78,8.75,0,14.2,5.1,14.2,13.14s-5.62,14.41-14.55,14.41c-10.08,0-14.16-7.56-14.16-13.78ZM322.96,348.81c0-7.87-4.53-12.76-10.3-12.76-4.04,0-8.65,2.25-8.65,11,0,7.31,4.04,13.11,10.79,13.11,2.46,0,8.15-1.2,8.15-11.35Z"/>
      <path class="cls-1" d="M344.22,356.64c.07,2.74.53,3.66,1.23,3.9.6.21,1.26.25,1.83.25.39,0,.6.07.6.28,0,.28-.32.35-.81.35-2.28,0-3.69-.11-4.36-.11-.32,0-1.97.11-3.8.11-.46,0-.77-.04-.77-.35,0-.21.21-.28.56-.28.46,0,1.09-.04,1.58-.17.91-.28,1.05-1.3,1.09-4.36l.32-20.8c0-.7.11-1.2.46-1.2.39,0,.7.46,1.3,1.09.42.46,5.76,6.18,10.89,11.28,2.39,2.39,7.13,7.45,7.73,8.01h.18l-.35-15.78c-.04-2.14-.35-2.81-1.19-3.16-.53-.21-1.37-.21-1.86-.21-.42,0-.56-.11-.56-.32,0-.28.39-.32.91-.32,1.83,0,3.51.11,4.25.11.39,0,1.72-.11,3.44-.11.46,0,.81.04.81.32,0,.21-.21.32-.63.32-.35,0-.63,0-1.05.11-.98.28-1.26,1.02-1.3,2.99l-.39,22.17c0,.77-.14,1.09-.46,1.09-.39,0-.81-.39-1.19-.77-2.21-2.11-6.71-6.71-10.37-10.33-3.83-3.79-7.73-8.19-8.36-8.86h-.11l.39,14.76Z"/>
      <path class="cls-1" d="M382.56,345.05c0-5.34,0-6.33-.07-7.45-.07-1.2-.35-1.76-1.51-2-.28-.07-.88-.11-1.37-.11-.39,0-.6-.07-.6-.32s.25-.32.77-.32c.95,0,1.97.04,2.85.04.91.04,1.72.07,2.21.07,1.12,0,8.12,0,8.79-.04.67-.07,1.23-.14,1.51-.21.18-.04.39-.14.56-.14s.21.14.21.32c0,.25-.18.67-.28,2.28-.04.35-.11,1.9-.18,2.32-.04.18-.11.39-.35.39s-.32-.18-.32-.49c0-.25-.04-.84-.21-1.26-.25-.63-.6-1.05-2.35-1.27-.6-.07-4.29-.14-4.99-.14-.18,0-.25.11-.25.35v8.89c0,.25.04.39.25.39.77,0,4.81,0,5.62-.07.84-.07,1.37-.18,1.69-.53.25-.28.39-.46.56-.46.14,0,.25.07.25.28s-.14.77-.28,2.57c-.04.7-.14,2.11-.14,2.35,0,.28,0,.67-.32.67-.25,0-.32-.14-.32-.32-.04-.35-.04-.81-.14-1.27-.18-.7-.67-1.23-1.97-1.37-.67-.07-4.15-.11-4.99-.11-.18,0-.21.14-.21.35v2.78c0,1.19-.04,4.43,0,5.45.07,2.42.63,2.95,4.22,2.95.91,0,2.39,0,3.3-.42.91-.42,1.34-1.16,1.58-2.6.07-.39.14-.53.39-.53.28,0,.28.28.28.63,0,.81-.28,3.2-.46,3.9-.25.91-.56.91-1.9.91-2.63,0-4.57-.07-6.08-.11-1.51-.07-2.6-.11-3.65-.11-.39,0-1.16,0-2,.04-.81,0-1.72.07-2.42.07-.46,0-.7-.11-.7-.35,0-.18.14-.28.56-.28.53,0,.95-.07,1.26-.14.7-.14.88-.91,1.02-1.93.18-1.48.18-4.25.18-7.48v-6.19Z"/>
    </g>
    <path class="cls-1" d="M233.64,0h7.32v128.25h-7.32V0ZM302.69,0v128.25h7.32V0h-7.32ZM248.67,116.63h2.18V25.79h-2.18v90.84ZM261.88,25.79h-2.18v90.84h2.18V25.79ZM272.91,25.79h-2.18v90.84h2.18V25.79ZM281.76,116.63h2.18V25.79h-2.18v90.84ZM292.79,116.63h2.18V25.79h-2.18v90.84ZM248.67,128.25h2.18v-9.75h-2.18v9.75ZM259.95,128.25h2.18v-9.75h-2.18v9.75ZM271.03,128.25h2.18v-9.75h-2.18v9.75ZM281.32,128.25h2.18v-9.75h-2.18v9.75ZM292.79,128.25h2.18v-9.75h-2.18v9.75ZM251.21,34.18h7.56v-.43h-7.56v.43ZM251.21,43.31h7.56v-.43h-7.56v.43ZM251.21,52.45h7.56v-.43h-7.56v.43ZM251.21,61.59h7.56v-.43h-7.56v.43ZM251.21,70.73h7.56v-.43h-7.56v.43ZM251.21,79.87h7.56v-.43h-7.56v.43ZM251.21,89h7.56v-.43h-7.56v.43ZM251.21,98.14h7.56v-.43h-7.56v.43ZM251.21,107.28h7.56v-.43h-7.56v.43ZM251.21,116.42h7.56v-.43h-7.56v.43ZM262.29,34.18h7.56v-.43h-7.56v.43ZM262.29,43.31h7.56v-.43h-7.56v.43ZM262.29,52.45h7.56v-.43h-7.56v.43ZM262.29,61.59h7.56v-.43h-7.56v.43ZM262.29,70.73h7.56v-.43h-7.56v.43ZM262.29,79.87h7.56v-.43h-7.56v.43ZM262.29,89h7.56v-.43h-7.56v.43ZM262.29,98.14h7.56v-.43h-7.56v.43ZM262.29,107.28h7.56v-.43h-7.56v.43ZM262.29,116.42h7.56v-.43h-7.56v.43ZM273.38,34.18h7.56v-.43h-7.56v.43ZM273.38,43.31h7.56v-.43h-7.56v.43ZM273.38,52.45h7.56v-.43h-7.56v.43ZM273.38,61.59h7.56v-.43h-7.56v.43ZM273.38,70.73h7.56v-.43h-7.56v.43ZM273.38,79.87h7.56v-.43h-7.56v.43ZM273.38,89h7.56v-.43h-7.56v.43ZM273.38,98.14h7.56v-.43h-7.56v.43ZM273.38,107.28h7.56v-.43h-7.56v.43ZM273.38,116.42h7.56v-.43h-7.56v.43ZM284.37,34.18h7.56v-.43h-7.56v.43ZM284.37,43.31h7.56v-.43h-7.56v.43ZM284.37,52.45h7.56v-.43h-7.56v.43ZM284.37,61.59h7.56v-.43h-7.56v.43ZM284.37,70.73h7.56v-.43h-7.56v.43ZM284.37,79.87h7.56v-.43h-7.56v.43ZM284.37,89h7.56v-.43h-7.56v.43ZM284.37,98.14h7.56v-.43h-7.56v.43ZM284.37,107.28h7.56v-.43h-7.56v.43ZM284.37,116.42h7.56v-.43h-7.56v.43ZM242.15,34.39h5.54v-.29h-5.54v.29ZM242.15,43.53h5.54v-.29h-5.54v.29ZM242.15,52.67h5.54v-.29h-5.54v.29ZM242.15,61.81h5.54v-.29h-5.54v.29ZM242.15,70.95h5.54v-.29h-5.54v.29ZM242.15,80.08h5.54v-.29h-5.54v.29ZM242.15,89.22h5.54v-.29h-5.54v.29ZM242.15,98.36h5.54v-.29h-5.54v.29ZM242.15,107.5h5.54v-.29h-5.54v.29ZM242.15,116.64h5.54v-.29h-5.54v.29ZM296.09,34.39h5.54v-.29h-5.54v.29ZM296.09,43.53h5.54v-.29h-5.54v.29ZM296.09,52.67h5.54v-.29h-5.54v.29ZM296.09,61.81h5.54v-.29h-5.54v.29ZM296.09,70.95h5.54v-.29h-5.54v.29ZM296.09,80.08h5.54v-.29h-5.54v.29ZM296.09,89.22h5.54v-.29h-5.54v.29ZM296.09,98.36h5.54v-.29h-5.54v.29ZM296.09,107.5h5.54v-.29h-5.54v.29ZM296.09,116.64h5.54v-.29h-5.54v.29ZM242.15,25.71h5.54v-.29h-5.54v.29ZM296.09,25.71h5.54v-.29h-5.54v.29ZM250.13,23.74h.21v-10.55c.46-.06.94-.12,1.42-.18V1.49h-2.98v11.92c.44-.07.89-.13,1.35-.19v10.53ZM254.38,23.74h.21v-11.04c.36-.04.73-.07,1.11-.1V1.49h-2.98v11.41c.54-.06,1.1-.12,1.66-.17v11.02ZM257.96,23.74h.21v-11.34c.48-.03.97-.07,1.46-.1V1.49h-2.98v11.03c.43-.04.87-.07,1.31-.1v11.32ZM261.97,23.74h.21v-11.58c.46-.02.92-.04,1.38-.06V1.49h-2.98v10.75c.46-.03.92-.05,1.39-.07v11.57ZM265.91,23.74h.21v-11.73c.45-.01.91-.02,1.37-.03V1.49h-2.98v10.57c.46-.02.93-.03,1.39-.05v11.73ZM242.88,3.52h-.23v15.06h.23V3.52ZM244.08,3.52h-.23v15.06h.23V3.52ZM245.28,3.52h-.23v15.06h.23V3.52ZM246.48,3.52h-.23v15.06h.23V3.52ZM247.68,3.52h-.23v15.06h.23V3.52ZM270.16,23.74h.21v-11.81c.35,0,.7,0,1.06,0V1.49h-2.98v10.46c.57,0,1.14-.02,1.71-.02v11.81ZM273.74,23.74h.21v-11.8c.47,0,.94.01,1.41.02V1.49h-2.98v10.44c.45,0,.9,0,1.35,0v11.81ZM277.75,23.74h.21v-11.73c.45.01.89.03,1.33.04V1.49h-2.98v10.48c.48,0,.96.02,1.43.04v11.73ZM281.9,23.74h.21v-11.56c.38.02.75.04,1.12.06V1.49h-2.98v10.6c.55.02,1.1.05,1.64.07v11.57ZM286.14,23.74h.21v-11.3c.27.02.54.04.81.06V1.49h-2.98v10.8c.66.04,1.31.09,1.96.14v11.31ZM289.72,23.74h.21v-10.98c.39.04.78.08,1.17.12V1.49h-2.98v11.1c.54.05,1.08.1,1.6.15v11ZM293.74,23.74h.21v-10.51c.37.05.73.1,1.09.15V1.49h-2.98v11.5c.57.07,1.13.14,1.68.21v10.54ZM296.83,3.52h-.23v15.06h.23V3.52ZM298.03,3.52h-.23v15.06h.23V3.52ZM299.23,3.52h-.23v15.06h.23V3.52ZM300.42,3.52h-.23v15.06h.23V3.52ZM301.62,3.52h-.23v15.06h.23V3.52ZM248.23,24.39h47.06v-.45h-47.06v.45Z"/>
  </g>
</svg>